Coordinates
version=1
nRows=30
nColumns=23
inDegrees=yes

Units are S.I. units (second, meters, Newtons, ...)
Angles are in degrees.

endheader
time	pelvis_tilt	pelvis_list	pelvis_rotation	pelvis_tx	pelvis_ty	pelvis_tz	hip_flexion_r	hip_adduction_r	hip_rotation_r	knee_angle_r	knee_angle_r_beta	ankle_angle_r	subtalar_angle_r	mtp_angle_r	hip_flexion_l	hip_adduction_l	hip_rotation_l	knee_angle_l	knee_angle_l_beta	ankle_angle_l	subtalar_angle_l	mtp_angle_l
    120.99555600	    -21.10074222	     -0.35127434	      6.44682779	      0.03550184	      1.29010065	      0.22612940	     50.69952910	     -8.38236435	     -4.73259385	     53.10297259	      0.92682171	     -4.49708838	      0.00000000	      0.00000000	     92.93562695	     -0.37459870	      1.20842350	     97.72176492	      1.70556655	      4.06794473	      0.00000000	      0.00000000
    121.00444400	    -20.91872650	     -0.38827679	      6.18350179	      0.03511425	      1.29032140	      0.22609722	     51.58895903	     -8.26733533	     -4.21626483	     56.29499613	      0.98253303	     -3.72769494	      0.00000000	      0.00000000	     91.64204995	     -0.54500934	      1.10322386	     95.13555702	      1.66042871	      4.32809366	      0.00000000	      0.00000000
    121.01333300	    -20.71956950	     -0.41443845	      5.92034999	      0.03476553	      1.29054068	      0.22608213	     52.54153458	     -8.15817806	     -3.70929011	     59.52623022	      1.03892871	     -3.06234707	      0.00000000	      0.00000000	     90.16225563	     -0.74952701	      0.94927614	     92.38752838	      1.61246656	      4.52450444	      0.00000000	      0.00000000
    121.02222200	    -20.53616861	     -0.45787910	      5.64085234	      0.03448909	      1.29070255	      0.22607704	     53.58434548	     -8.02120500	     -3.21365221	     62.79028575	      1.09589722	     -2.46897773	      0.00000000	      0.00000000	     88.55148410	     -1.00507613	      0.76551873	     89.50734042	      1.56219780	      4.68749649	      0.00000000	      0.00000000
    121.03111100	    -20.35415529	     -0.49538388	      5.35615879	      0.03427074	      1.29084821	      0.22609833	     54.70639121	     -7.87939243	     -2.72354816	     66.05862808	      1.15294056	     -1.97340946	      0.00000000	      0.00000000	     86.79867578	     -1.29614787	      0.52928196	     86.49371406	      1.50960009	      4.77998561	      0.00000000	      0.00000000
    121.04000000	    -20.16423264	     -0.53887167	      5.07235295	      0.03414465	      1.29103980	      0.22612176	     55.88863799	     -7.73240516	     -2.25917184	     69.30298484	      1.20956527	     -1.65797846	      0.00000000	      0.00000000	     84.90171172	     -1.61399793	      0.24733142	     83.34880655	      1.45471110	      4.74322410	      0.00000000	      0.00000000
    121.04888900	    -19.98619324	     -0.56681395	      4.77043175	      0.03410229	      1.29119913	      0.22616550	     57.16085897	     -7.57855926	     -1.78004792	     72.53322295	      1.26594356	     -1.40337504	      0.00000000	      0.00000000	     82.89368736	     -1.96464951	     -0.10305668	     80.10612487	      1.39811563	      4.66442649	      0.00000000	      0.00000000
    121.05777800	    -19.80631683	     -0.61868136	      4.48561855	      0.03417964	      1.29142592	      0.22615488	     58.47938355	     -7.42192021	     -1.34321323	     75.69128755	      1.32106218	     -1.32971257	      0.00000000	      0.00000000	     80.77190007	     -2.31506214	     -0.47920102	     76.75693422	      1.33966123	      4.41586147	      0.00000000	      0.00000000
    121.06666700	    -19.64200495	     -0.64856542	      4.17431672	      0.03441226	      1.29171987	      0.22622565	     59.86652403	     -7.25398205	     -0.89193435	     78.76589683	      1.37472424	     -1.30615888	      0.00000000	      0.00000000	     78.53990831	     -2.70587659	     -0.95361591	     73.30819701	      1.27946941	      4.12897260	      0.00000000	      0.00000000
    121.07555600	    -19.44304095	     -0.68834442	      3.84815476	      0.03474643	      1.29205635	      0.22628682	     61.27211451	     -7.06279046	     -0.45300363	     81.76812150	      1.42712294	     -1.36258223	      0.00000000	      0.00000000	     76.18434562	     -3.11806944	     -1.48340357	     69.81955063	      1.21858104	      3.78269225	      0.00000000	      0.00000000
    121.08444400	    -19.27141201	     -0.73463795	      3.52074661	      0.03525768	      1.29248608	      0.22632584	     62.73014613	     -6.86546783	     -0.03572615	     84.63733677	      1.47720020	     -1.49571238	      0.00000000	      0.00000000	     73.75316432	     -3.52906414	     -2.08391149	     66.24361459	      1.15616918	      3.32443750	      0.00000000	      0.00000000
    121.09333300	    -19.09298218	     -0.79371783	      3.17408138	      0.03589322	      1.29294398	      0.22640227	     64.22237456	     -6.64704279	      0.34952991	     87.40097247	      1.52543474	     -1.67818554	      0.00000000	      0.00000000	     71.24292559	     -3.97026148	     -2.77470670	     62.64401687	      1.09334435	      2.81546092	      0.00000000	      0.00000000
    121.10222200	    -18.90659283	     -0.84678853	      2.80462469	      0.03665343	      1.29344117	      0.22647553	     65.73305078	     -6.40838010	      0.73654659	     90.02873593	      1.57129786	     -1.88424971	      0.00000000	      0.00000000	     68.65336703	     -4.41430156	     -3.55696009	     59.02176954	      1.03012421	      2.26149621	      0.00000000	      0.00000000
    121.11111100	    -18.74128772	     -0.93108307	      2.43237065	      0.03754151	      1.29394048	      0.22651693	     67.28593716	     -6.15836043	      1.06020258	     92.52424634	      1.61485274	     -2.12233949	      0.00000000	      0.00000000	     66.04104479	     -4.85874912	     -4.41043426	     55.39492572	      0.96682384	      1.60355655	      0.00000000	      0.00000000
    121.12000000	    -18.56564362	     -1.01649107	      2.03031847	      0.03851792	      1.29443252	      0.22655196	     68.85297217	     -5.88061689	      1.37689305	     94.87870811	      1.65594585	     -2.35419688	      0.00000000	      0.00000000	     63.38796447	     -5.30692322	     -5.35951378	     51.80514328	      0.90417032	      0.91556500	      0.00000000	      0.00000000
    121.12888900	    -18.38148558	     -1.11355134	      1.61237628	      0.03954301	      1.29489707	      0.22656599	     70.42993330	     -5.58812468	      1.65216793	     97.09674655	      1.69465792	     -2.57453283	      0.00000000	      0.00000000	     60.72526170	     -5.74632669	     -6.39306358	     48.28781709	      0.84278140	      0.19860752	      0.00000000	      0.00000000
    121.13777800	    -18.29531971	     -1.26399908	      1.20095907	      0.04065908	      1.29519415	      0.22651353	     72.10806563	     -5.28280223	      1.84978249	     99.14925715	      1.73048099	     -2.77826955	      0.00000000	      0.00000000	     58.20485502	     -6.17578567	     -7.45003406	     44.86522660	      0.78304592	     -0.73006493	      0.00000000	      0.00000000
    121.14666700	    -18.12609207	     -1.34333994	      0.78363796	      0.04171782	      1.29548596	      0.22641189	     73.73842719	     -5.01176957	      2.09143724	    101.08900763	      1.76433602	     -2.95447096	      0.00000000	      0.00000000	     55.63225934	     -6.52659040	     -8.61721119	     41.58574794	      0.72580822	     -1.59914173	      0.00000000	      0.00000000
    121.15555600	    -18.05749335	     -1.51360218	      0.37815343	      0.04283032	      1.29561812	      0.22621139	     75.44201126	     -4.71250454	      2.21844467	    102.83682196	      1.79484114	     -3.07886597	      0.00000000	      0.00000000	     53.28200453	     -6.88783301	     -9.72318298	     38.54210660	      0.67268666	     -2.59896259	      0.00000000	      0.00000000
    121.16444400	    -18.05944238	     -1.70191436	      0.00223138	      0.04385500	      1.29553969	      0.22595153	     77.21776128	     -4.43381747	      2.29918794	    104.43458779	      1.82272741	     -3.15341094	      0.00000000	      0.00000000	     51.14058974	     -7.21037898	    -10.77496790	     35.75705670	      0.62407837	     -3.68104963	      0.00000000	      0.00000000
    121.17333300	    -18.06642170	     -1.86304387	     -0.33852359	      0.04482400	      1.29542463	      0.22563837	     78.98737254	     -4.19291167	      2.37847083	    105.86988665	      1.84777810	     -3.17865414	      0.00000000	      0.00000000	     49.14733525	     -7.46553896	    -11.79240897	     33.28084938	      0.58086040	     -4.75001261	      0.00000000	      0.00000000
    121.18222200	    -18.11001821	     -2.01986295	     -0.65619054	      0.04562242	      1.29518943	      0.22529201	     80.77362137	     -3.95790570	      2.44790513	    107.12840087	      1.86974332	     -3.15288901	      0.00000000	      0.00000000	     47.37278985	     -7.67572306	    -12.64102034	     31.16680174	      0.54396331	     -5.76964143	      0.00000000	      0.00000000
    121.19111100	    -18.17743105	     -2.17835920	     -0.93138422	      0.04630008	      1.29492973	      0.22501009	     82.53929616	     -3.72633981	      2.49350404	    108.19777405	      1.88840740	     -3.08715536	      0.00000000	      0.00000000	     45.81829478	     -7.87040625	    -13.36764799	     29.46319279	      0.51422972	     -6.67852528	      0.00000000	      0.00000000
    121.20000000	    -18.32407868	     -2.35255920	     -1.16741566	      0.04681179	      1.29458800	      0.22476485	     84.32770500	     -3.48787731	      2.50717513	    109.05514308	      1.90337131	     -2.96819426	      0.00000000	      0.00000000	     44.56684992	     -8.06305948	    -13.89465160	     28.20150459	      0.49220911	     -7.44110555	      0.00000000	      0.00000000
    121.20888900	    -18.47622530	     -2.49285751	     -1.38788684	      0.04723384	      1.29434503	      0.22464251	     86.03855022	     -3.21829063	      2.54154486	    109.69269792	      1.91449874	     -2.83531442	      0.00000000	      0.00000000	     43.51430388	     -8.23615645	    -14.23797397	     27.39283013	      0.47809508	     -7.98022944	      0.00000000	      0.00000000
    121.21777800	    -18.31716275	     -2.84481938	     -1.43278950	      0.04705595	      1.29444505	      0.22431634	     87.30540204	     -3.04448165	      2.32956280	    110.08882842	      1.92141253	     -2.86557890	      0.00000000	      0.00000000	     42.50605263	     -8.50365380	    -14.03819002	     27.28657451	      0.47624057	     -8.00448828	      0.00000000	      0.00000000
    121.22666700	    -18.76647680	     -2.73919721	     -1.80940639	      0.04750623	      1.29415743	      0.22487856	     89.13996501	     -2.51467039	      2.60858972	    110.23815014	      1.92401868	     -2.55376721	      0.00000000	      0.00000000	     42.02622429	     -8.63675694	    -14.35752224	     27.16242170	      0.47407369	     -8.24352472	      0.00000000	      0.00000000
    121.23555600	    -18.87930345	     -2.74852881	     -1.99083142	      0.04740393	      1.29421328	      0.22523738	     90.49885339	     -2.11238015	      2.75339956	    110.17038626	      1.92283598	     -2.45238886	      0.00000000	      0.00000000	     41.54363529	     -8.76533510	    -14.17577710	     27.69623421	      0.48339048	     -8.11306973	      0.00000000	      0.00000000
    121.24444400	    -19.14967308	     -2.86353455	     -2.10876227	      0.04710849	      1.29410251	      0.22558123	     91.83921173	     -1.72030527	      2.76701599	    109.80653401	      1.91648556	     -2.40001662	      0.00000000	      0.00000000	     41.49333749	     -8.95722444	    -13.60297831	     28.75777671	      0.50191789	     -7.50766588	      0.00000000	      0.00000000
    121.25333300	    -19.05953492	     -2.75150133	     -2.33364665	      0.04671384	      1.29465130	      0.22633549	     92.67961903	     -1.17005587	      3.00853128	    109.24701860	      1.90672017	     -2.28979667	      0.00000000	      0.00000000	     41.14279987	     -9.07298699	    -13.30128893	     30.04059054	      0.52430721	     -7.22256922	      0.00000000	      0.00000000
